<svg xmlns="http://www.w3.org/2000/svg" viewBox="0 0 108 108" role="img" aria-hidden="true">
  <path d="M 54.00,16.00 L 80.87,27.13 L 92.00,54.00 L 80.87,80.87 L 54.00,92.00 L 27.13,80.87 L 16.00,54.00 L 27.13,27.13 Z" fill="none" stroke="#A61E52" stroke-width="4.10" stroke-opacity="0.55" stroke-linejoin="round"/>
  <path d="M 54.00,22.50 L 76.27,31.73 L 85.50,54.00 L 76.27,76.27 L 54.00,85.50 L 31.73,76.27 L 22.50,54.00 L 31.73,31.73 Z" fill="none" stroke="#D42D6A" stroke-width="3.70" stroke-opacity="0.88" stroke-linejoin="round"/>
  <path d="M 34.00,34.00 L 74.00,34.00 L 74.00,74.00 L 34.00,74.00 Z" fill="none" stroke="#D42D6A" stroke-width="3.80" stroke-linejoin="round"/>
  <path d="M 72.03,35.97 L 72.03,72.03 L 35.97,72.03 L 35.97,35.97 Z" fill="none" stroke="#A61E52" stroke-width="3.15" stroke-opacity="0.92" stroke-linejoin="round"/>
  <path d="M 54.00,42.00 L 60.00,48.00 L 66.00,54.00 L 60.00,60.00 L 54.00,66.00 L 48.00,60.00 L 42.00,54.00 L 48.00,48.00 Z" fill="none" stroke="#A61E52" stroke-width="3.15" stroke-opacity="0.90" stroke-linejoin="round"/>
  <path d="M 74.00,34.00 L 79.80,28.20" fill="none" stroke="#4F6D95" stroke-width="2.85" stroke-opacity="0.88" stroke-linejoin="round"/>
  <path d="M 74.00,74.00 L 79.80,79.80" fill="none" stroke="#4F6D95" stroke-width="2.85" stroke-opacity="0.88" stroke-linejoin="round"/>
  <path d="M 34.00,74.00 L 28.20,79.80" fill="none" stroke="#4F6D95" stroke-width="2.85" stroke-opacity="0.88" stroke-linejoin="round"/>
  <path d="M 34.00,34.00 L 28.20,28.20" fill="none" stroke="#4F6D95" stroke-width="2.85" stroke-opacity="0.88" stroke-linejoin="round"/>
  <path d="M 54.00,34.00 L 54.00,17.52" fill="none" stroke="#D42D6A" stroke-width="3.15" stroke-opacity="0.78" stroke-linejoin="round"/>
  <path d="M 74.00,54.00 L 90.48,54.00" fill="none" stroke="#D42D6A" stroke-width="3.15" stroke-opacity="0.78" stroke-linejoin="round"/>
  <path d="M 54.00,74.00 L 54.00,90.48" fill="none" stroke="#D42D6A" stroke-width="3.15" stroke-opacity="0.78" stroke-linejoin="round"/>
  <path d="M 34.00,54.00 L 17.52,54.00" fill="none" stroke="#D42D6A" stroke-width="3.15" stroke-opacity="0.78" stroke-linejoin="round"/>
  <path d="M 63.90,44.10 L 70.59,37.41" fill="none" stroke="#4F6D95" stroke-width="2.45" stroke-opacity="0.72" stroke-linejoin="round"/>
  <path d="M 63.90,63.90 L 70.59,70.59" fill="none" stroke="#4F6D95" stroke-width="2.45" stroke-opacity="0.72" stroke-linejoin="round"/>
  <path d="M 44.10,63.90 L 37.41,70.59" fill="none" stroke="#4F6D95" stroke-width="2.45" stroke-opacity="0.72" stroke-linejoin="round"/>
  <path d="M 44.10,44.10 L 37.41,37.41" fill="none" stroke="#4F6D95" stroke-width="2.45" stroke-opacity="0.72" stroke-linejoin="round"/>
</svg>