<svg xmlns="http://www.w3.org/2000/svg" viewBox="0 0 108 108" role="img" aria-hidden="true">
  <path d="M 54.00,18.00 L 79.46,28.54 L 90.00,54.00 L 79.46,79.46 L 54.00,90.00 L 28.54,79.46 L 18.00,54.00 L 28.54,28.54 Z" fill="none" stroke="#A61E52" stroke-width="4.10" stroke-opacity="0.55" stroke-linejoin="round"/>
  <path d="M 54.00,26.00 L 73.80,34.20 L 82.00,54.00 L 73.80,73.80 L 54.00,82.00 L 34.20,73.80 L 26.00,54.00 L 34.20,34.20 Z" fill="none" stroke="#D42D6A" stroke-width="3.70" stroke-opacity="0.85" stroke-linejoin="round"/>
  <path d="M 54.00,32.00 L 57.49,45.58 L 69.56,38.44 L 62.42,50.51 L 76.00,54.00 L 62.42,57.49 L 69.56,69.56 L 57.49,62.42 L 54.00,76.00 L 50.51,62.42 L 38.44,69.56 L 45.58,57.49 L 32.00,54.00 L 45.58,50.51 L 38.44,38.44 L 50.51,45.58 Z" fill="none" stroke="#D42D6A" stroke-width="3.90" stroke-linejoin="round"/>
  <path d="M 54.00,14.50 L 60.72,17.28 L 63.50,24.00 L 60.72,30.72 L 54.00,33.50 L 47.28,30.72 L 44.50,24.00 L 47.28,17.28 Z" fill="none" stroke="#4F6D95" stroke-width="2.85" stroke-opacity="0.80" stroke-linejoin="round"/>
  <path d="M 81.93,26.07 L 84.71,32.79 L 81.93,39.50 L 75.21,42.29 L 68.50,39.50 L 65.71,32.79 L 68.50,26.07 L 75.21,23.29 Z" fill="none" stroke="#4F6D95" stroke-width="2.85" stroke-opacity="0.80" stroke-linejoin="round"/>
  <path d="M 93.50,54.00 L 90.72,60.72 L 84.00,63.50 L 77.28,60.72 L 74.50,54.00 L 77.28,47.28 L 84.00,44.50 L 90.72,47.28 Z" fill="none" stroke="#4F6D95" stroke-width="2.85" stroke-opacity="0.80" stroke-linejoin="round"/>
  <path d="M 81.93,81.93 L 75.21,84.71 L 68.50,81.93 L 65.71,75.21 L 68.50,68.50 L 75.21,65.71 L 81.93,68.50 L 84.71,75.21 Z" fill="none" stroke="#4F6D95" stroke-width="2.85" stroke-opacity="0.80" stroke-linejoin="round"/>
  <path d="M 54.00,93.50 L 47.28,90.72 L 44.50,84.00 L 47.28,77.28 L 54.00,74.50 L 60.72,77.28 L 63.50,84.00 L 60.72,90.72 Z" fill="none" stroke="#4F6D95" stroke-width="2.85" stroke-opacity="0.80" stroke-linejoin="round"/>
  <path d="M 26.07,81.93 L 23.29,75.21 L 26.07,68.50 L 32.79,65.71 L 39.50,68.50 L 42.29,75.21 L 39.50,81.93 L 32.79,84.71 Z" fill="none" stroke="#4F6D95" stroke-width="2.85" stroke-opacity="0.80" stroke-linejoin="round"/>
  <path d="M 14.50,54.00 L 17.28,47.28 L 24.00,44.50 L 30.72,47.28 L 33.50,54.00 L 30.72,60.72 L 24.00,63.50 L 17.28,60.72 Z" fill="none" stroke="#4F6D95" stroke-width="2.85" stroke-opacity="0.80" stroke-linejoin="round"/>
  <path d="M 26.07,26.07 L 32.79,23.29 L 39.50,26.07 L 42.29,32.79 L 39.50,39.50 L 32.79,42.29 L 26.07,39.50 L 23.29,32.79 Z" fill="none" stroke="#4F6D95" stroke-width="2.85" stroke-opacity="0.80" stroke-linejoin="round"/>
</svg>