<svg xmlns="http://www.w3.org/2000/svg" viewBox="0 0 108 108" role="img" aria-hidden="true">
  <path d="M 91.00,54.00 L 72.50,86.04 L 35.50,86.04 L 17.00,54.00 L 35.50,21.96 L 72.50,21.96 Z" fill="none" stroke="#A61E52" stroke-width="4.10" stroke-opacity="0.55" stroke-linejoin="round"/>
  <path d="M 82.00,54.00 L 68.00,78.25 L 40.00,78.25 L 26.00,54.00 L 40.00,29.75 L 68.00,29.75 Z" fill="none" stroke="#D42D6A" stroke-width="3.70" stroke-opacity="0.88" stroke-linejoin="round"/>
  <path d="M 54.00,33.00 L 60.06,43.50 L 72.19,43.50 L 66.12,54.00 L 72.19,64.50 L 60.06,64.50 L 54.00,75.00 L 47.94,64.50 L 35.81,64.50 L 41.88,54.00 L 35.81,43.50 L 47.94,43.50 Z" fill="none" stroke="#D42D6A" stroke-width="3.85" stroke-linejoin="round"/>
  <path d="M 54.00,38.50 L 67.42,61.75 L 40.58,61.75 Z" fill="none" stroke="#A61E52" stroke-width="3.15" stroke-opacity="0.92" stroke-linejoin="round"/>
  <path d="M 54.00,69.50 L 40.58,46.25 L 67.42,46.25 Z" fill="none" stroke="#A61E52" stroke-width="3.15" stroke-opacity="0.92" stroke-linejoin="round"/>
  <path d="M 70.45,63.50 L 84.12,71.39" fill="none" stroke="#4F6D95" stroke-width="2.85" stroke-opacity="0.88" stroke-linejoin="round"/>
  <path d="M 54.00,73.00 L 54.00,88.78" fill="none" stroke="#4F6D95" stroke-width="2.85" stroke-opacity="0.88" stroke-linejoin="round"/>
  <path d="M 37.55,63.50 L 23.88,71.39" fill="none" stroke="#4F6D95" stroke-width="2.85" stroke-opacity="0.88" stroke-linejoin="round"/>
  <path d="M 37.55,44.50 L 23.88,36.61" fill="none" stroke="#4F6D95" stroke-width="2.85" stroke-opacity="0.88" stroke-linejoin="round"/>
  <path d="M 54.00,35.00 L 54.00,19.22" fill="none" stroke="#4F6D95" stroke-width="2.85" stroke-opacity="0.88" stroke-linejoin="round"/>
  <path d="M 70.45,44.50 L 84.12,36.61" fill="none" stroke="#4F6D95" stroke-width="2.85" stroke-opacity="0.88" stroke-linejoin="round"/>
  <path d="M 78.00,54.00 L 42.00,74.78" fill="none" stroke="#4F6D95" stroke-width="2.50" stroke-opacity="0.70" stroke-linejoin="round"/>
  <path d="M 66.00,74.78 L 30.00,54.00" fill="none" stroke="#4F6D95" stroke-width="2.50" stroke-opacity="0.70" stroke-linejoin="round"/>
  <path d="M 42.00,74.78 L 42.00,33.22" fill="none" stroke="#4F6D95" stroke-width="2.50" stroke-opacity="0.70" stroke-linejoin="round"/>
  <path d="M 30.00,54.00 L 66.00,33.22" fill="none" stroke="#4F6D95" stroke-width="2.50" stroke-opacity="0.70" stroke-linejoin="round"/>
  <path d="M 42.00,33.22 L 78.00,54.00" fill="none" stroke="#4F6D95" stroke-width="2.50" stroke-opacity="0.70" stroke-linejoin="round"/>
  <path d="M 66.00,33.22 L 66.00,74.78" fill="none" stroke="#4F6D95" stroke-width="2.50" stroke-opacity="0.70" stroke-linejoin="round"/>
</svg>