<svg xmlns="http://www.w3.org/2000/svg" viewBox="0 0 108 108" role="img" aria-hidden="true">
  <path d="M 54.00,16.00 L 80.87,27.13 L 92.00,54.00 L 80.87,80.87 L 54.00,92.00 L 27.13,80.87 L 16.00,54.00 L 27.13,27.13 Z" fill="none" stroke="#A61E52" stroke-width="4.10" stroke-opacity="0.55" stroke-linejoin="round"/>
  <path d="M 54.00,26.00 L 82.00,54.00 L 54.00,82.00 L 26.00,54.00 Z" fill="none" stroke="#D42D6A" stroke-width="3.70" stroke-linejoin="round"/>
  <path d="M 73.80,34.20 L 73.80,73.80 L 34.20,73.80 L 34.20,34.20 Z" fill="none" stroke="#D42D6A" stroke-width="3.70" stroke-linejoin="round"/>
  <path d="M 54.00,34.00 L 57.17,46.35 L 68.14,39.86 L 61.65,50.83 L 74.00,54.00 L 61.65,57.17 L 68.14,68.14 L 57.17,61.65 L 54.00,74.00 L 50.83,61.65 L 39.86,68.14 L 46.35,57.17 L 34.00,54.00 L 46.35,50.83 L 39.86,39.86 L 50.83,46.35 Z" fill="none" stroke="#A61E52" stroke-width="3.15" stroke-linejoin="round"/>
  <path d="M 54.00,22.00 L 54.00,34.00" fill="none" stroke="#4F6D95" stroke-width="2.85" stroke-opacity="0.88" stroke-linejoin="round"/>
  <path d="M 86.00,54.00 L 74.00,54.00" fill="none" stroke="#4F6D95" stroke-width="2.85" stroke-opacity="0.88" stroke-linejoin="round"/>
  <path d="M 54.00,86.00 L 54.00,74.00" fill="none" stroke="#4F6D95" stroke-width="2.85" stroke-opacity="0.88" stroke-linejoin="round"/>
  <path d="M 22.00,54.00 L 34.00,54.00" fill="none" stroke="#4F6D95" stroke-width="2.85" stroke-opacity="0.88" stroke-linejoin="round"/>
  <path d="M 71.72,36.28 L 64.39,43.61" fill="none" stroke="#4F6D95" stroke-width="2.85" stroke-opacity="0.88" stroke-linejoin="round"/>
  <path d="M 71.72,71.72 L 64.39,64.39" fill="none" stroke="#4F6D95" stroke-width="2.85" stroke-opacity="0.88" stroke-linejoin="round"/>
  <path d="M 36.28,71.72 L 43.61,64.39" fill="none" stroke="#4F6D95" stroke-width="2.85" stroke-opacity="0.88" stroke-linejoin="round"/>
  <path d="M 36.28,36.28 L 43.61,43.61" fill="none" stroke="#4F6D95" stroke-width="2.85" stroke-opacity="0.88" stroke-linejoin="round"/>
</svg>